name D:\PhD\Datasets\SharingData_IBEC_VALDUCE\HM_Comp_0001.mot
datacolumns 46
datarows 5
range 5.01000000 5.05000000
endheader
                time	         pelvis_tilt	     pelvis_rotation	           pelvis_tx	           pelvis_ty	           pelvis_tz	       hip_flexion_r	     hip_adduction_r	      hip_rotation_r	        knee_angle_r	       ankle_angle_r	    subtalar_angle_r	         mtp_angle_r	       hip_flexion_l	     hip_adduction_l	      hip_rotation_l	        knee_angle_l	       ankle_angle_l	    subtalar_angle_l	         mtp_angle_l	    lumbar_extension	      lumbar_bending	     lumbar_rotation	          arm_flex_r	           arm_add_r	           arm_rot_r	        elbow_flex_r	           pro_sup_r	        wrist_flex_r	         wrist_dev_r	          arm_flex_l	           arm_add_l	           arm_rot_l	        elbow_flex_l	           pro_sup_l	        wrist_flex_l	         wrist_dev_l	          end_eff_tx	          end_eff_ty	          end_eff_tz	             goal_tx	             goal_ty	             goal_tz	            elbow_tx	            elbow_ty	            elbow_tz	
          5.01000000	          0.00000000	          0.00000000	        338.03157242	        492.78335939	        384.89699112	          0.00000000	          0.00000000	          0.00000000	          0.00000000	          0.00000000	          0.00000000	          0.00000000	          0.00000000	          0.00000000	          0.00000000	          0.00000000	          0.00000000	          0.00000000	          0.00000000	         -7.48245859	          6.98556280	         -5.95968485	         34.76559830	        -34.57876587	         20.90584373	         89.96694183	         73.80294800	          0.00000000	          0.00000000	          0.00000000	          0.00000000	          0.00000000	          0.00000000	          0.00000000	          0.00000000	          0.00000000	        622.69406015	        501.88612815	        527.94398117	        586.69723624	        516.83061412	        445.66173037	        285.87699274	        340.71900918	        722.57194798	
          5.02000000	          0.00000000	          0.00000000	        337.81691974	        493.03624164	        384.75974531	          0.00000000	          0.00000000	          0.00000000	          0.00000000	          0.00000000	          0.00000000	          0.00000000	          0.00000000	          0.00000000	          0.00000000	          0.00000000	          0.00000000	          0.00000000	          0.00000000	         -7.41979408	          6.97140741	         -5.98988295	         34.33984756	        -34.63029099	         20.80044556	         89.83520508	         74.18328857	          0.00000000	          0.00000000	          0.00000000	          0.00000000	          0.00000000	          0.00000000	          0.00000000	          0.00000000	          0.00000000	        622.51966471	        498.58464654	        529.15792282	        587.91797031	        513.35406837	        447.10361382	        283.94698317	        339.99284143	        722.62154472	
          5.03000000	          0.00000000	          0.00000000	        337.60595129	        493.21156874	        384.65613441	          0.00000000	          0.00000000	          0.00000000	          0.00000000	          0.00000000	          0.00000000	          0.00000000	          0.00000000	          0.00000000	          0.00000000	          0.00000000	          0.00000000	          0.00000000	          0.00000000	         -7.42901850	          6.97051191	         -5.97937155	         33.91775131	        -34.83113480	         20.69633484	         89.70263672	         74.48645020	          0.00000000	          0.00000000	          0.00000000	          0.00000000	          0.00000000	          0.00000000	          0.00000000	          0.00000000	          0.00000000	        622.43247704	        495.21389265	        530.56051061	        588.98330732	        509.68751207	        448.57066437	        281.82191500	        339.40254739	        722.68826145	
          5.04000000	          0.00000000	          0.00000000	        337.40649352	        493.41111684	        384.56265176	          0.00000000	          0.00000000	          0.00000000	          0.00000000	          0.00000000	          0.00000000	          0.00000000	          0.00000000	          0.00000000	          0.00000000	          0.00000000	          0.00000000	          0.00000000	          0.00000000	         -7.49386835	          6.97468710	         -5.97151184	         33.64276123	        -34.99319839	         20.48978424	         89.54198456	         74.57990265	          0.00000000	          0.00000000	          0.00000000	          0.00000000	          0.00000000	          0.00000000	          0.00000000	          0.00000000	          0.00000000	        622.47206194	        491.85340078	        532.02600224	        590.13864160	        506.36003542	        450.16758797	        279.77486920	        338.78823572	        722.71815041	
          5.05000000	          0.00000000	          0.00000000	        337.20723844	        493.61789716	        384.44170176	          0.00000000	          0.00000000	          0.00000000	          0.00000000	          0.00000000	          0.00000000	          0.00000000	          0.00000000	          0.00000000	          0.00000000	          0.00000000	          0.00000000	          0.00000000	          0.00000000	         -7.51526308	          6.92784166	         -5.96558666	         33.22734070	        -35.11304092	         20.29498672	         89.43150330	         74.69516754	          0.00000000	          0.00000000	          0.00000000	          0.00000000	          0.00000000	          0.00000000	          0.00000000	          0.00000000	          0.00000000	        622.53987841	        488.35594453	        533.55630352	        591.30504344	        502.69894376	        451.76778351	        277.72620683	        338.21277089	        722.68248582	
